<svg width="32" height="32" viewBox="0 0 32 32" fill="none" xmlns="http://www.w3.org/2000/svg">
<path d="M32 16.0006C32 24.0816 26.0099 30.7623 18.2282 31.8464C17.5006 31.9473 16.7562 32 16.0006 32C15.1283 32 14.2718 31.9305 13.4377 31.796C5.81859 30.5695 0 23.9638 0 16.0006C0 7.16393 7.16393 0 15.9994 0C24.835 0 32 7.16393 32 16.0006Z" fill="#1877F2"/>
<path d="M18.2281 12.8469V16.3324H22.5399L21.8571 21.0277H18.2281V31.8453C17.5005 31.9462 16.756 31.9989 16.0004 31.9989C15.1282 31.9989 14.2716 31.9294 13.4375 31.7949V21.0277H9.46094V16.3324H13.4375V12.0677C13.4375 9.42188 15.5822 7.27606 18.2292 7.27606V7.2783C18.237 7.2783 18.2438 7.27606 18.2516 7.27606H22.541V11.3367H19.7382C18.9052 11.3367 18.2292 12.0128 18.2292 12.8458L18.2281 12.8469Z" fill="white"/>
</svg>
