<svg width="32" height="32" viewBox="0 0 32 32" fill="none" xmlns="http://www.w3.org/2000/svg">
<path d="M16.0364 0H15.9636C7.14714 0 0 7.14713 0 15.9636V16.0364C0 24.8529 7.14714 32 15.9636 32H16.0364C24.8529 32 32 24.8529 32 16.0364V15.9636C32 7.14713 24.8529 0 16.0364 0Z" fill="#007EBB"/>
<path d="M7.63099 10.6371C7.20957 10.2458 7 9.76152 7 9.18526C7 8.60901 7.21069 8.10339 7.63099 7.711C8.0524 7.31973 8.59487 7.12354 9.25949 7.12354C9.92412 7.12354 10.4453 7.31973 10.8656 7.711C11.287 8.10227 11.4966 8.59444 11.4966 9.18526C11.4966 9.77609 11.2859 10.2458 10.8656 10.6371C10.4442 11.0284 9.90955 11.2246 9.25949 11.2246C8.60944 11.2246 8.0524 11.0284 7.63099 10.6371ZM11.1424 12.8816V24.8775H7.35304V12.8816H11.1424Z" fill="#FEFFFC"/>
<path d="M23.7618 14.0665C24.5881 14.9634 25.0007 16.1944 25.0007 17.7617V24.6656H21.4008V18.2483C21.4008 17.4579 21.1956 16.8435 20.7864 16.4063C20.3772 15.9691 19.8256 15.7493 19.135 15.7493C18.4444 15.7493 17.8928 15.9679 17.4836 16.4063C17.0744 16.8435 16.8692 17.4579 16.8692 18.2483V24.6656H13.248V12.8479H16.8692V14.4152C17.2358 13.8928 17.7303 13.4802 18.3514 13.1764C18.9725 12.8725 19.6709 12.7212 20.4478 12.7212C21.8313 12.7212 22.9367 13.1696 23.7618 14.0665Z" fill="#FEFFFC"/>
</svg>
