<svg width="81" height="44" viewBox="0 0 81 44" fill="none" xmlns="http://www.w3.org/2000/svg">
<mask id="mask0_92_630" style="mask-type:luminance" maskUnits="userSpaceOnUse" x="4" y="11" width="23" height="14">
<path d="M4.02615 11.7333H27V24.64H4.02615V11.7333Z" fill="white"/>
</mask>
<g mask="url(#mask0_92_630)">
<path fill-rule="evenodd" clip-rule="evenodd" d="M6.35564 23.4988L18.0535 13.5025L26.5002 20.5654L17.6041 11.8342L4.02615 23.4988H6.35564Z" fill="#2B7FFF"/>
</g>
<path fill-rule="evenodd" clip-rule="evenodd" d="M64.446 23.8517H67.0965V26.5237H64.446V23.8517Z" fill="#2B7FFF"/>
<path fill-rule="evenodd" clip-rule="evenodd" d="M61.4195 23.8517H64.0608V26.5237H61.4195V23.8517Z" fill="#2B7FFF"/>
<path fill-rule="evenodd" clip-rule="evenodd" d="M61.4195 20.7854H64.0608V23.4575H61.4195V20.7854Z" fill="#2B7FFF"/>
<path fill-rule="evenodd" clip-rule="evenodd" d="M64.446 20.7854H67.0965V23.4575H64.446V20.7854Z" fill="#2B7FFF"/>
<mask id="mask1_92_630" style="mask-type:luminance" maskUnits="userSpaceOnUse" x="54" y="12" width="24" height="14">
<path d="M54 12.9067H77.0105V25.8133H54V12.9067Z" fill="white"/>
</mask>
<g mask="url(#mask1_92_630)">
<path fill-rule="evenodd" clip-rule="evenodd" d="M63.5014 13.9287L54.4723 22.6508L62.9969 15.7208L74.6994 25.5154H77.1022L63.5014 13.9287Z" fill="#2B7FFF"/>
</g>
<mask id="mask2_92_630" style="mask-type:luminance" maskUnits="userSpaceOnUse" x="44" y="0" width="8" height="5">
<path d="M44.6087 0.215416H51.6522V4.69333H44.6087V0.215416Z" fill="white"/>
</mask>
<g mask="url(#mask2_92_630)">
<path fill-rule="evenodd" clip-rule="evenodd" d="M46.7456 1.45292L51.0102 3.68042V2.6125L46.6676 0.247499L44.6683 1.97542V3.26792L46.7456 1.45292Z" fill="#2B7FFF"/>
</g>
<path fill-rule="evenodd" clip-rule="evenodd" d="M47.3784 26.8354L63.3409 11.2796L73.5897 19.3233L64.1571 10.4088L57.3842 11.7288L52.1245 6.765H50.758V4.34958L46.7456 2.25042V7.05833L45.3928 5.24792L34.2819 2.55292L29.1965 7.41583L34.8322 3.15792L47.328 14.4833L44.3932 15.0104L41.7748 17.0179L37.1158 13.2092L17.0217 8.34625L6.93343 17.5771L17.7142 9.11625L33.2731 24.4017L30.3888 26.8354H47.3784Z" fill="#2B7FFF"/>
<path fill-rule="evenodd" clip-rule="evenodd" d="M35.1853 5.43125L29.4716 10.0467L30.8611 10.6104C30.8611 10.6104 35.2311 6.39833 35.2311 6.4625C35.2311 6.53125 42.6965 12.8425 42.6965 12.8425L35.1853 5.43125Z" fill="#2B7FFF"/>
<path fill-rule="evenodd" clip-rule="evenodd" d="M33.8738 8.48375H35.0386V9.65708H33.8738V8.48375Z" fill="#2B7FFF"/>
<path fill-rule="evenodd" clip-rule="evenodd" d="M33.8738 9.83125H35.0386V11.0046H33.8738V9.83125Z" fill="#2B7FFF"/>
<path fill-rule="evenodd" clip-rule="evenodd" d="M35.2082 9.83125H36.3684V11.0046H35.2082V9.83125Z" fill="#2B7FFF"/>
<path fill-rule="evenodd" clip-rule="evenodd" d="M35.2082 8.48375H36.3684V9.65708H35.2082V8.48375Z" fill="#2B7FFF"/>
<path fill-rule="evenodd" clip-rule="evenodd" d="M17.6362 22.5088H20.2775V25.1854H17.6362V22.5088Z" fill="#2B7FFF"/>
<path fill-rule="evenodd" clip-rule="evenodd" d="M14.6005 22.5088H17.2418V25.1854H14.6005V22.5088Z" fill="#2B7FFF"/>
<path fill-rule="evenodd" clip-rule="evenodd" d="M14.6005 19.4471H17.2418V22.1237H14.6005V19.4471Z" fill="#2B7FFF"/>
<path fill-rule="evenodd" clip-rule="evenodd" d="M17.6362 19.4471H20.2775V22.1237H17.6362V19.4471Z" fill="#2B7FFF"/>
<path d="M1.54909 39.3834V29.2817H3.67681V33.4434H8.02395V29.2817H10.1517V39.3834H8.02395V35.2034H3.67681V39.3834H1.54909Z" fill="white"/>
<path d="M15.3142 39.53C14.5438 39.53 13.8743 39.3742 13.3149 39.0533C12.7646 38.7234 12.3336 38.265 12.0309 37.6783C11.7237 37.0825 11.5724 36.395 11.5724 35.625C11.5724 34.8458 11.7237 34.1583 12.0309 33.5717C12.3336 32.985 12.7646 32.5267 13.3149 32.1967C13.8743 31.8667 14.5438 31.7017 15.3142 31.7017C16.0708 31.7017 16.7312 31.8667 17.2952 32.1967C17.8546 32.5267 18.2857 32.985 18.5792 33.5717C18.8818 34.1583 19.0377 34.8458 19.0377 35.625C19.0377 36.395 18.8818 37.0825 18.5792 37.6783C18.2857 38.265 17.8546 38.7234 17.2952 39.0533C16.7312 39.3742 16.0708 39.53 15.3142 39.53ZM15.3142 37.8984C15.837 37.8984 16.2359 37.6875 16.5065 37.2567C16.7724 36.8167 16.91 36.2667 16.91 35.6067C16.91 34.9467 16.7724 34.4058 16.5065 33.975C16.2359 33.535 15.837 33.315 15.3142 33.315C14.7869 33.315 14.3879 33.535 14.1219 33.975C13.8514 34.4058 13.7184 34.9467 13.7184 35.6067C13.7184 36.2667 13.8514 36.8167 14.1219 37.2567C14.3879 37.6875 14.7869 37.8984 15.3142 37.8984Z" fill="white"/>
<path d="M20.4146 39.3834V31.8117H22.4139V33.1317H22.5056C22.6616 32.6917 22.9275 32.3433 23.2944 32.0867C23.6612 31.83 24.1014 31.7017 24.615 31.7017C25.1378 31.7017 25.578 31.83 25.9357 32.0867C26.3025 32.3433 26.5456 32.6917 26.6694 33.1317H26.7611C26.9078 32.7054 27.183 32.3617 27.5865 32.105C27.9992 31.8392 28.4853 31.7017 29.0355 31.7017C29.7417 31.7017 30.3195 31.9309 30.7597 32.38C31.2091 32.8338 31.4384 33.4709 31.4384 34.2867V39.3834H29.329V34.7083C29.329 34.2821 29.219 33.9658 28.9989 33.755C28.7787 33.5488 28.4944 33.4433 28.1551 33.4433C27.7745 33.4433 27.4764 33.5671 27.2563 33.81C27.0454 34.0438 26.9445 34.36 26.9445 34.7634V39.3834H24.9085V34.6533C24.9085 34.2867 24.7984 33.9933 24.5783 33.7733C24.3674 33.5533 24.0923 33.4433 23.7529 33.4433C23.3953 33.4433 23.0972 33.5717 22.8542 33.8283C22.6203 34.0758 22.5056 34.4104 22.5056 34.8367V39.3834H20.4146Z" fill="white"/>
<path d="M36.5402 39.53C35.7698 39.53 35.1003 39.3742 34.5408 39.0533C33.9768 38.7371 33.5412 38.2925 33.2385 37.715C32.9313 37.1284 32.78 36.4317 32.78 35.625C32.78 34.8458 32.9313 34.1583 33.2385 33.5717C33.5412 32.985 33.9722 32.5267 34.5225 32.1967C35.0728 31.8667 35.7193 31.7017 36.4668 31.7017C37.1271 31.7017 37.7232 31.8438 38.2643 32.1233C38.8009 32.4075 39.2273 32.8338 39.5483 33.4067C39.8647 33.9842 40.0252 34.6992 40.0252 35.5517V36.1384H34.8527C34.8527 36.7021 35.004 37.1467 35.3112 37.4767C35.6276 37.7975 36.0495 37.9534 36.5768 37.9534C36.9299 37.9534 37.2372 37.88 37.494 37.7334C37.7507 37.5867 37.925 37.3758 38.0259 37.0917L39.9885 37.22C39.828 37.9167 39.4474 38.4804 38.8513 38.9067C38.2506 39.3238 37.4802 39.53 36.5402 39.53ZM34.8527 34.8367H38.0442C38.0442 34.3875 37.8975 34.0117 37.604 33.7183C37.3197 33.425 36.9483 33.2783 36.4851 33.2783C36.0174 33.2783 35.6322 33.4342 35.3296 33.7367C35.0361 34.03 34.8756 34.3967 34.8527 34.8367Z" fill="white"/>
<path d="M50.3512 32.82H48.1868C48.1134 32.2609 47.8795 31.8209 47.4897 31.5C47.0954 31.1838 46.6093 31.0234 46.0223 31.0234C45.2382 31.0234 44.61 31.3121 44.1331 31.885C43.6562 32.4625 43.4177 33.2738 43.4177 34.3234C43.4177 35.4142 43.6562 36.2392 44.1331 36.7984C44.61 37.3484 45.2336 37.6234 46.004 37.6234C46.5634 37.6234 47.0404 37.4767 47.4347 37.1834C47.8382 36.89 48.0859 36.4775 48.1868 35.9367H50.3512C50.2778 36.56 50.0577 37.1467 49.6908 37.6967C49.324 38.2375 48.8287 38.6775 48.2051 39.0167C47.5815 39.3604 46.834 39.53 45.9673 39.53C45.0594 39.53 44.2523 39.3284 43.5461 38.925C42.8354 38.5125 42.2713 37.9167 41.8586 37.1467C41.4551 36.3675 41.2533 35.4234 41.2533 34.3234C41.2533 33.2234 41.4597 32.2884 41.877 31.5184C42.2897 30.7484 42.8537 30.1617 43.5645 29.7584C44.2706 29.3459 45.0731 29.135 45.9673 29.135C46.7469 29.135 47.4531 29.2817 48.0767 29.575C48.7003 29.8592 49.2139 30.2717 49.6175 30.8217C50.021 31.3717 50.264 32.0409 50.3512 32.82Z" fill="white"/>
<path d="M55.2858 39.53C54.5154 39.53 53.8459 39.3742 53.2865 39.0533C52.7362 38.7234 52.3052 38.265 52.0025 37.6783C51.6953 37.0825 51.5439 36.395 51.5439 35.625C51.5439 34.8458 51.6953 34.1583 52.0025 33.5717C52.3052 32.985 52.7362 32.5267 53.2865 32.1967C53.8459 31.8667 54.5154 31.7017 55.2858 31.7017C56.0424 31.7017 56.7027 31.8667 57.2668 32.1967C57.8262 32.5267 58.2573 32.985 58.5507 33.5717C58.8534 34.1583 59.0093 34.8458 59.0093 35.625C59.0093 36.395 58.8534 37.0825 58.5507 37.6783C58.2573 38.265 57.8262 38.7234 57.2668 39.0533C56.7027 39.3742 56.0424 39.53 55.2858 39.53ZM55.2858 37.8984C55.8086 37.8984 56.2075 37.6875 56.478 37.2567C56.744 36.8167 56.8816 36.2667 56.8816 35.6067C56.8816 34.9467 56.744 34.4058 56.478 33.975C56.2075 33.535 55.8086 33.315 55.2858 33.315C54.7584 33.315 54.3595 33.535 54.0935 33.975C53.823 34.4058 53.69 34.9467 53.69 35.6067C53.69 36.2667 53.823 36.8167 54.0935 37.2567C54.3595 37.6875 54.7584 37.8984 55.2858 37.8984Z" fill="white"/>
<path d="M66.696 33.9567L64.77 34.085C64.7058 33.8421 64.5683 33.6358 64.3482 33.4617C64.1372 33.2783 63.8575 33.1867 63.5044 33.1867C63.1742 33.1867 62.8899 33.26 62.6607 33.4067C62.4405 33.5442 62.3305 33.7183 62.3305 33.9383C62.3305 34.1217 62.4039 34.2821 62.5506 34.415C62.6973 34.5388 62.945 34.635 63.3026 34.7083L64.6783 34.9833C66.1319 35.2767 66.8611 35.9642 66.8611 37.0367C66.8611 37.5409 66.7143 37.9809 66.4208 38.3567C66.1365 38.7234 65.7422 39.0121 65.2286 39.2184C64.7242 39.4246 64.1464 39.53 63.4861 39.53C62.4818 39.53 61.6793 39.3238 61.0832 38.9067C60.4962 38.4804 60.1477 37.9075 60.0377 37.1834L62.1104 37.0733C62.1837 37.3942 62.3351 37.6325 62.5689 37.7884C62.812 37.935 63.1192 38.0083 63.4861 38.0083C63.8529 38.0083 64.1464 37.9442 64.3665 37.8067C64.5958 37.66 64.7196 37.4721 64.7333 37.2383C64.7196 36.8717 64.394 36.6242 63.7612 36.4867L62.4405 36.23C60.9732 35.9367 60.2395 35.2171 60.2395 34.0667C60.2395 33.3333 60.5329 32.7604 61.1199 32.3433C61.7068 31.9171 62.4864 31.7017 63.4677 31.7017C64.4215 31.7017 65.1736 31.9033 65.7238 32.3067C66.2741 32.71 66.5951 33.26 66.696 33.9567Z" fill="white"/>
<path d="M72.2312 31.8117V33.3884H70.8005V37.055C70.8005 37.3484 70.8601 37.5454 70.9839 37.6417C71.1169 37.7425 71.2958 37.7884 71.5159 37.7884C71.6122 37.7884 71.7085 37.7838 71.8093 37.77C71.9056 37.7471 71.979 37.7334 72.0295 37.7334L72.3596 39.2917C72.2587 39.3284 72.112 39.365 71.9194 39.4017C71.7222 39.4475 71.4884 39.4796 71.2224 39.4934C70.4612 39.5163 69.8513 39.3559 69.3881 38.9984C68.9204 38.6317 68.6911 38.0771 68.6911 37.33V33.3884H67.664V31.8117H68.6911V29.9784H70.8005V31.8117H72.2312Z" fill="white"/>
<mask id="mask3_92_630" style="mask-type:luminance" maskUnits="userSpaceOnUse" x="72" y="31" width="9" height="9">
<path d="M72.7826 31.68H80.4681V39.8933H72.7826V31.68Z" fill="white"/>
</mask>
<g mask="url(#mask3_92_630)">
<path d="M79.8026 33.9567L77.8767 34.085C77.8125 33.8421 77.6749 33.6359 77.4548 33.4617C77.2439 33.2784 76.9641 33.1867 76.6111 33.1867C76.2809 33.1867 75.9966 33.26 75.7673 33.4067C75.5472 33.5442 75.4371 33.7184 75.4371 33.9384C75.4371 34.1217 75.5105 34.2821 75.6572 34.415C75.804 34.5388 76.0516 34.635 76.4093 34.7084L77.785 34.9834C79.2386 35.2767 79.9677 35.9642 79.9677 37.0367C79.9677 37.5409 79.821 37.9809 79.5275 38.3567C79.2432 38.7234 78.8488 39.0121 78.3352 39.2184C77.8308 39.4246 77.253 39.53 76.5927 39.53C75.5885 39.53 74.786 39.3238 74.1899 38.9067C73.6029 38.4804 73.2544 37.9075 73.1443 37.1834L75.217 37.0734C75.2904 37.3942 75.4417 37.6325 75.6756 37.7884C75.9186 37.935 76.2259 38.0084 76.5927 38.0084C76.9596 38.0084 77.253 37.9442 77.4731 37.8067C77.7024 37.66 77.8262 37.4721 77.84 37.2384C77.8262 36.8717 77.5007 36.6242 76.8678 36.4867L75.5472 36.23C74.0798 35.9367 73.3461 35.2171 73.3461 34.0667C73.3461 33.3334 73.6396 32.7604 74.2265 32.3434C74.8135 31.9171 75.593 31.7017 76.5744 31.7017C77.5282 31.7017 78.2802 31.9034 78.8305 32.3067C79.3808 32.71 79.7017 33.26 79.8026 33.9567Z" fill="white"/>
</g>
</svg>
