<svg width="32" height="32" viewBox="0 0 32 32" fill="none" xmlns="http://www.w3.org/2000/svg">
<path d="M16.0364 0H15.9636C7.14713 0 0 7.14713 0 15.9636V16.0364C0 24.8529 7.14713 32 15.9636 32H16.0364C24.8529 32 32 24.8529 32 16.0364V15.9636C32 7.14713 24.8529 0 16.0364 0Z" fill="url(#paint0_linear_142_3380)"/>
<path d="M25.527 15.9995V16.0544C25.5012 20.6341 22.2253 24.4605 17.8922 25.3372C17.5985 25.3955 17.3014 25.4415 16.9987 25.474C16.6713 25.5076 16.3372 25.5267 16.0009 25.5267C14.678 25.5267 13.4178 25.2565 12.272 24.7666L7.85147 25.2374C7.09696 25.3182 6.53978 24.548 6.85257 23.8573L8.04095 21.2261C7.05101 19.7249 6.47363 17.9278 6.47363 15.9995C6.47363 10.7481 10.7484 6.47333 16.0009 6.47333C20.9674 6.47333 25.0584 10.2941 25.4889 15.1508C25.5147 15.4288 25.527 15.7147 25.527 15.9995Z" fill="white"/>
<path d="M20.58 13.2179C21.0072 12.8682 21.5935 13.3917 21.2931 13.8547L19.293 16.94L18.2347 18.5724C18.0093 18.9199 17.5362 19.0029 17.2055 18.7529L15.4509 17.4221L14.3691 16.6026C14.2816 16.5364 14.1594 16.5387 14.0742 16.6082L11.4194 18.7742C10.9923 19.1229 10.407 18.5993 10.7075 18.1363L12.5809 15.2483L13.6392 13.6159C13.8646 13.2684 14.3377 13.1854 14.6684 13.4354L16.3714 14.7258L17.4521 15.5443C17.5407 15.6104 17.6629 15.6082 17.7481 15.5387L20.58 13.2168V13.2179Z" fill="url(#paint1_linear_142_3380)"/>
<defs>
<linearGradient id="paint0_linear_142_3380" x1="16" y1="0" x2="16" y2="32" gradientUnits="userSpaceOnUse">
<stop stop-color="#00B2FF"/>
<stop offset="1" stop-color="#006AFF"/>
</linearGradient>
<linearGradient id="paint1_linear_142_3380" x1="16.0002" y1="13.1038" x2="16.0002" y2="18.8975" gradientUnits="userSpaceOnUse">
<stop stop-color="#00B2FF"/>
<stop offset="1" stop-color="#006AFF"/>
</linearGradient>
</defs>
</svg>
