<svg width="32" height="32" viewBox="0 0 32 32" fill="none" xmlns="http://www.w3.org/2000/svg">
<path d="M16.0364 0H15.9636C7.14713 0 0 7.14713 0 15.9636V16.0364C0 24.8529 7.14713 32 15.9636 32H16.0364C24.8529 32 32 24.8529 32 16.0364V15.9636C32 7.14713 24.8529 0 16.0364 0Z" fill="#FF0000"/>
<path fill-rule="evenodd" clip-rule="evenodd" d="M14.5395 20.3752C14.5205 20.4414 14.5026 20.4974 14.488 20.5535C13.6415 23.8697 13.5474 24.6063 12.6774 26.1467C12.2626 26.8788 11.7951 27.5728 11.2782 28.2365C11.2199 28.3116 11.165 28.408 11.0484 28.3845C10.9206 28.3576 10.9105 28.2421 10.897 28.1401C10.758 27.1322 10.6807 26.1221 10.7143 25.1041C10.758 23.7789 10.9217 23.3238 12.6303 16.1397C12.655 16.0298 12.6269 15.939 12.591 15.8403C12.1818 14.7371 12.1011 13.6171 12.4588 12.4826C13.2323 10.0318 16.0104 9.84459 16.4959 11.866C16.7952 13.116 16.0037 14.7528 15.3961 17.1722C14.8927 19.1678 17.2426 20.5871 19.2505 19.1297C21.1026 17.7866 21.8212 14.5667 21.6844 12.2841C21.4153 7.73353 16.4253 6.75031 13.2604 8.21561C9.6313 9.89392 8.80617 14.3918 10.4452 16.448C10.6526 16.7092 11.0439 16.8695 10.9755 17.1341C10.8701 17.5455 10.7771 17.9603 10.6627 18.3695C10.5775 18.6745 10.0921 18.7855 9.78378 18.6599C9.17949 18.4155 8.67611 18.031 8.26803 17.5242C6.87672 15.8011 6.47873 12.3929 8.31848 9.50713C10.3567 6.31083 14.1483 5.01707 17.6103 5.40946C21.745 5.8792 24.3583 8.70442 24.8471 11.9097C25.0702 13.3694 24.9099 16.9693 22.8605 19.5142C20.5028 22.4381 16.6809 22.632 14.9174 20.8371C14.7817 20.6992 14.673 20.5389 14.5395 20.3741V20.3752Z" fill="white"/>
</svg>
