<svg width="32" height="32" viewBox="0 0 32 32" fill="none" xmlns="http://www.w3.org/2000/svg">
<path d="M15.9636 0H16.0364C24.8473 0 32 7.15272 32 15.9636V16.0364C32 24.8473 24.8473 32 16.0364 32H15.9636C7.15272 32 0 24.8473 0 16.0364V15.9636C0 7.15272 7.15272 0 15.9636 0Z" fill="#FF4500"/>
<path d="M25.9134 15.5992C25.6477 14.394 24.5468 13.6126 23.4548 13.8536C23.0826 13.9355 22.762 14.1272 22.5086 14.3895C21.0388 13.3222 19.032 12.617 16.7909 12.4836L17.8638 8.01711L21.0466 8.77834C21.0993 9.64833 21.8202 10.3378 22.7037 10.3378C23.5871 10.3378 24.3652 9.5934 24.3652 8.67633C24.3652 7.75925 23.6207 7.01483 22.7037 7.01483C22.0388 7.01483 21.466 7.4061 21.2014 7.97115L17.7483 7.14488C17.477 7.07986 17.2046 7.2469 17.1384 7.51821L15.9512 12.4612C13.4511 12.4747 11.1954 13.1978 9.57652 14.3559C9.49692 14.2819 9.41172 14.2135 9.31867 14.153C8.37581 13.5509 7.07307 13.9063 6.40937 14.9456C5.74567 15.9849 5.97101 17.3168 6.91387 17.9188C6.96992 17.9547 7.0271 17.9861 7.0854 18.0152C7.04728 18.2473 7.0271 18.4838 7.0271 18.7226C7.0271 22.1813 11.053 24.9852 16.0196 24.9852C20.9861 24.9852 25.012 22.1813 25.012 18.7226C25.012 18.4805 24.9907 18.2417 24.9515 18.0074C25.7172 17.5623 26.1343 16.5925 25.9157 15.5992H25.9134ZM11.4084 17.2719C11.4084 16.4838 12.0475 15.8447 12.8356 15.8447C13.6238 15.8447 14.2628 16.4838 14.2628 17.2719C14.2628 18.0601 13.6238 18.6991 12.8356 18.6991C12.0475 18.6991 11.4084 18.0601 11.4084 17.2719ZM19.3347 21.7777C18.8964 22.1757 17.6856 23.104 15.9131 23.1208C15.8974 23.1208 15.8805 23.1208 15.8648 23.1208C14.0688 23.1208 12.8423 22.1835 12.395 21.7777C12.2515 21.6476 12.2414 21.4256 12.3715 21.2833C12.5015 21.1398 12.7235 21.1297 12.8659 21.2597C13.2549 21.614 14.3301 22.4358 15.9063 22.4212C17.4389 22.4066 18.4849 21.605 18.8638 21.2608C19.0073 21.1308 19.2282 21.1409 19.3583 21.2844C19.4883 21.4279 19.4782 21.6488 19.3347 21.7788V21.7777ZM19.1621 18.6991C18.3739 18.6991 17.7349 18.0601 17.7349 17.2719C17.7349 16.4838 18.3739 15.8447 19.1621 15.8447C19.9502 15.8447 20.5892 16.4838 20.5892 17.2719C20.5892 18.0601 19.9502 18.6991 19.1621 18.6991Z" fill="white"/>
</svg>
