<svg width="32" height="32" viewBox="0 0 32 32" fill="none" xmlns="http://www.w3.org/2000/svg">
<path d="M31.9978 16.0006C31.9978 24.0816 26.0078 30.7623 18.2265 31.8464C17.4989 31.9473 16.7545 32 15.9989 32C15.1267 32 14.2702 31.9305 13.4361 31.796C5.81838 30.5695 0 23.9638 0 16.0006C0 7.16393 7.16368 0 16 0C24.8363 0 32 7.16393 32 16.0006H31.9978Z" fill="#1C1C1B"/>
<path d="M6.48835 7.05634L13.8673 16.9222L6.44238 24.9437H8.11391L14.615 17.9211L19.8673 24.9437H25.5545L17.7608 14.523L24.6722 7.05634H23.0007L17.0141 13.5241L12.1767 7.05634H6.48946H6.48835ZM8.94574 8.28732H11.5579L23.0949 23.7127H20.4827L8.94574 8.28732Z" fill="white"/>
</svg>
